<svg width="36" height="36" viewBox="0 0 36 36" xmlns="http://www.w3.org/2000/svg">
    <defs>
        <filter id="vhyju3bh8a">
            <feColorMatrix in="SourceGraphic" values="0 0 0 0 0.854902 0 0 0 0 0.403922 0 0 0 0 0.333333 0 0 0 1.000000 0"/>
        </filter>
    </defs>
    <g fill="none" fill-rule="evenodd">
        <path d="M12.82 0h10.36c4.458 0 6.075.464 7.704 1.336a9.086 9.086 0 0 1 3.78 3.78C35.536 6.746 36 8.362 36 12.819v10.362c0 4.457-.464 6.074-1.336 7.703a9.086 9.086 0 0 1-3.78 3.78c-1.63.872-3.246 1.336-7.703 1.336H12.819c-4.457 0-6.074-.464-7.703-1.336a9.086 9.086 0 0 1-3.78-3.78C.464 29.254 0 27.638 0 23.181V12.819c0-4.457.464-6.074 1.336-7.703a9.086 9.086 0 0 1 3.78-3.78C6.746.464 8.362 0 12.819 0z" fill="#DA6755" opacity=".2"/>
        <g filter="url(#vhyju3bh8a)">
            <path d="M10.313 23.53a1.156 1.156 0 0 0 1.156 1.157h12.062c.639 0 1.156-.517 1.156-1.156v-8.117H10.312v8.117zm9.754-6.028h1.027a.513.513 0 0 1 0 1.026h-1.027a.513.513 0 0 1 0-1.026zm-3.08 0h1.026a.513.513 0 0 1 0 1.026h-1.026a.513.513 0 0 1 0-1.026zm0 3.114h1.026a.513.513 0 0 1 0 1.026h-1.026a.513.513 0 0 1 0-1.026zm-3.08-3.114h1.026a.513.513 0 0 1 0 1.026h-1.027a.513.513 0 0 1 0-1.026zm0 3.114h1.026a.513.513 0 0 1 0 1.026h-1.027a.513.513 0 0 1 0-1.026zm10.78-8.117c0-.639-.517-1.157-1.156-1.157h-1.924v-.451a.578.578 0 0 0-1.157 0v.451h-5.9v-.451a.578.578 0 0 0-1.157 0v.451h-1.924c-.639 0-1.156.518-1.156 1.157v1.8h14.374v-1.8z" fill="#DA6755" fill-rule="nonzero"/>
        </g>
    </g>
</svg>
