<?xml version="1.0" encoding="UTF-8"?>
<svg width="36px" height="36px" viewBox="0 0 36 36" version="1.1" xmlns="http://www.w3.org/2000/svg" xmlns:xlink="http://www.w3.org/1999/xlink">
    <title>AE3B6E97-8A84-4120-9D1E-E3C88DB1D5A2</title>
    <g id="Dashboard" stroke="none" stroke-width="1" fill="none" fill-rule="evenodd">
        <g id="Stridy-Dashboard" transform="translate(-427.000000, -138.000000)">
            <g id="编组-5" transform="translate(50.000000, 138.000000)">
                <g id="编组-25" transform="translate(377.000000, 0.000000)">
                    <path d="M12.819426,-5.17920154e-16 L23.180574,5.17920154e-16 C27.6381677,-3.00926524e-16 29.2545989,0.464128056 30.8842285,1.33566352 C32.5138581,2.20719898 33.792801,3.48614185 34.6643365,5.11577148 C35.5358719,6.74540111 36,8.3618323 36,12.819426 L36,23.180574 C36,27.6381677 35.5358719,29.2545989 34.6643365,30.8842285 C33.792801,32.5138581 32.5138581,33.792801 30.8842285,34.6643365 C29.2545989,35.5358719 27.6381677,36 23.180574,36 L12.819426,36 C8.3618323,36 6.74540111,35.5358719 5.11577148,34.6643365 C3.48614185,33.792801 2.20719898,32.5138581 1.33566352,30.8842285 C0.464128056,29.2545989 2.00617683e-16,27.6381677 -3.45280103e-16,23.180574 L3.45280103e-16,12.819426 C-2.00617683e-16,8.3618323 0.464128056,6.74540111 1.33566352,5.11577148 C2.20719898,3.48614185 3.48614185,2.20719898 5.11577148,1.33566352 C6.74540111,0.464128056 8.3618323,3.00926524e-16 12.819426,-5.17920154e-16 Z" id="矩形" fill="#DA6755" opacity="0.200000003"></path>
                    <g id="icon/location/outline备份-5">
                        <g transform="translate(6.000000, 6.000000)">
                            <g id="location/outline" transform="translate(5.031250, 2.875000)" fill="#da6755">
                                <path d="M6.63461538,-1.92290628e-13 C8.5194493,0.0498843262 10.0838615,0.692145026 11.3278518,1.9267821 C12.5718422,3.16141917 13.2189685,4.71406883 13.2692308,6.58473106 C13.2692308,9.37825333 11.0576923,12.7703875 6.63461538,16.7611336 C2.21153846,12.7703875 1.91402449e-13,9.37825333 1.91402449e-13,6.58473106 C0.0502622378,4.71406883 0.697388549,3.16141917 1.94137893,1.9267821 C3.18536932,0.692145026 4.74978147,0.0498843262 6.63461538,-1.92290628e-13 Z M6.63461538,3.59167149 C5.78015734,3.61661365 5.07020323,3.90968407 4.50475306,4.47088274 C3.93930288,5.03208141 3.64401224,5.73669751 3.61888112,6.58473106 C3.64401224,7.4327646 3.93930288,8.13738071 4.50475306,8.69857938 C5.07020323,9.25977805 5.78015734,9.55284847 6.63461538,9.57779063 C7.48907343,9.55284847 8.19902753,9.25977805 8.76447771,8.69857938 C9.32992788,8.13738071 9.62521853,7.4327646 9.65034965,6.58473106 C9.62521853,5.73669751 9.32992788,5.03208141 8.76447771,4.47088274 C8.19902753,3.90968407 7.48907343,3.61661365 6.63461538,3.59167149 Z" id="形状结合"></path>
                            </g>
                        </g>
                    </g>
                </g>
            </g>
        </g>
    </g>
</svg>