<?xml version="1.0" encoding="UTF-8"?>
<svg width="24px" height="24px" viewBox="0 0 24 24" version="1.1" xmlns="http://www.w3.org/2000/svg" xmlns:xlink="http://www.w3.org/1999/xlink">
    <title>754F478F-57EC-4592-91E4-ACBE7D502991</title>
    <g id="Dashboard" stroke="none" stroke-width="1" fill="none" fill-rule="evenodd">
        <g id="Stridy-Dashboard" transform="translate(-563.000000, -144.000000)">
            <g id="编组-5" transform="translate(50.000000, 138.000000)">
                <g id="编组-3" transform="translate(423.000000, 6.000000)">
                    <g id="矩形" transform="translate(90.000000, 0.000000)">
                        <rect stroke="#B0B2B1" x="0.5" y="0.5" width="23" height="23" rx="4"></rect>
                        <g id="icon/下拉" transform="translate(6.000000, 5.000000)" fill="#163223">
                            <path d="M9.14378563,3.86755185 L9.52921745,7.8427833 C9.58251612,8.39249022 9.18009772,8.88132283 8.6303908,8.9346215 C8.56620412,8.94084493 8.50156594,8.94084493 8.43737925,8.9346215 L4.4621478,8.54918968 C3.91244088,8.49589101 3.51002248,8.0070584 3.56332115,7.45735148 C3.5856986,7.22655704 3.68758518,7.01071209 3.85154679,6.84675047 L7.44134642,3.25695084 C7.83187072,2.86642655 8.4650357,2.86642655 8.85555999,3.25695084 C9.0195216,3.42091246 9.12140819,3.63675741 9.14378563,3.86755185 Z" id="矩形" transform="translate(6.000000, 5.405404) rotate(-315.000000) translate(-6.000000, -5.405404) "></path>
                        </g>
                    </g>
                </g>
            </g>
        </g>
    </g>
</svg>