<svg width="32" height="32" viewBox="0 0 32 32" xmlns="http://www.w3.org/2000/svg" xmlns:xlink="http://www.w3.org/1999/xlink">
    <defs>
        <path id="2vbio3ivma" d="M0 .575h22.491V23H0z"/>
    </defs>
    <g fill="none" fill-rule="evenodd">
        <g transform="translate(5 5)">
            <mask id="i56ct52c1b" fill="#fff">
                <use xlink:href="#2vbio3ivma"/>
            </mask>
            <path d="M11.246 2.321c-5.238 0-9.498 4.247-9.498 9.466 0 5.22 4.26 9.466 9.498 9.466 5.237 0 9.497-4.247 9.497-9.466 0-5.219-4.26-9.466-9.497-9.466m0 20.679C5.046 23 0 17.97 0 11.787 0 5.605 5.045.575 11.246.575c6.2 0 11.245 5.03 11.245 11.212C22.491 17.969 17.446 23 11.246 23" fill="#62B279" mask="url(#i56ct52c1b)"/>
        </g>
        <path d="M16.5 22c-3.243 0-5.933-2.315-6.364-5.313H9V15h2.838v.843c0 2.465 2.092 4.47 4.662 4.47 2.572 0 4.662-2.005 4.662-4.47V15H24v1.687h-1.136C22.434 19.685 19.744 22 16.5 22" fill="#62B279"/>
    </g>
</svg>
