<svg width="30" height="30" viewBox="0 0 30 30" xmlns="http://www.w3.org/2000/svg">
    <g transform="translate(-318 -15)" fill="none" fill-rule="evenodd">
        <path d="M340.297 27.339c-.05-1.985-.742-3.64-2.078-4.966-1.335-1.325-3.003-2.013-5.003-2.061-2 .048-3.667.736-5.003 2.061-1.335 1.326-2.028 2.981-2.077 4.966 0 1.448.586 3.103 1.758 4.965 1.172 1.863 2.946 3.924 5.322 6.186 2.377-2.262 4.151-4.323 5.323-6.186 1.172-1.862 1.758-3.517 1.758-4.965zm-7.08 13.273c-5.77-5.205-8.654-9.63-8.654-13.273.065-2.44.91-4.465 2.532-6.076 1.622-1.61 3.663-2.448 6.121-2.513 2.459.065 4.5.903 6.122 2.513 1.623 1.61 2.467 3.636 2.532 6.076 0 3.644-2.884 8.068-8.654 13.273zm0-10.93c.671-.017 1.229-.245 1.671-.684.443-.44.664-.992.664-1.66 0-.666-.221-1.22-.664-1.658-.442-.44-1-.66-1.672-.66-.672 0-1.229.22-1.671.66-.443.439-.664.992-.664 1.659s.221 1.22.664 1.659c.442.44 1 .667 1.671.683zm0 1.56c-1.115-.032-2.041-.414-2.779-1.146-.737-.732-1.122-1.651-1.155-2.757.033-1.106.418-2.025 1.155-2.757.738-.732 1.664-1.115 2.778-1.147 1.115.032 2.04.415 2.778 1.147s1.123 1.65 1.156 2.757c-.033 1.106-.418 2.025-1.156 2.757-.737.732-1.663 1.114-2.778 1.147z" fill="#eeb445"/>
    </g>
</svg>
