<?xml version="1.0" encoding="UTF-8"?>
<svg width="23px" height="23px" viewBox="0 0 23 23" version="1.1" xmlns="http://www.w3.org/2000/svg" xmlns:xlink="http://www.w3.org/1999/xlink">
    <title>CE776AE8-43C6-48C9-A132-59DF884DF450</title>
    <defs>
        <filter id="filter-1">
            <feColorMatrix in="SourceGraphic" type="matrix" values="0 0 0 0 0.854902 0 0 0 0 0.403922 0 0 0 0 0.333333 0 0 0 1.000000 0"></feColorMatrix>
        </filter>
    </defs>
    <g id="Dashboard" stroke="none" stroke-width="1" fill="none" fill-rule="evenodd">
        <g id="icon/location/outline备份-5" transform="translate(-1291.000000, -488.000000)" filter="url(#filter-1)">
            <g transform="translate(1291.000000, 488.000000)">
                <g id="location/outline" transform="translate(5.031250, 2.875000)" fill="#000000">
                    <path d="M6.63461538,-1.92290628e-13 C8.5194493,0.0498843262 10.0838615,0.692145026 11.3278518,1.9267821 C12.5718422,3.16141917 13.2189685,4.71406883 13.2692308,6.58473106 C13.2692308,9.37825333 11.0576923,12.7703875 6.63461538,16.7611336 C2.21153846,12.7703875 1.91402449e-13,9.37825333 1.91402449e-13,6.58473106 C0.0502622378,4.71406883 0.697388549,3.16141917 1.94137893,1.9267821 C3.18536932,0.692145026 4.74978147,0.0498843262 6.63461538,-1.92290628e-13 Z M6.63461538,3.59167149 C5.78015734,3.61661365 5.07020323,3.90968407 4.50475306,4.47088274 C3.93930288,5.03208141 3.64401224,5.73669751 3.61888112,6.58473106 C3.64401224,7.4327646 3.93930288,8.13738071 4.50475306,8.69857938 C5.07020323,9.25977805 5.78015734,9.55284847 6.63461538,9.57779063 C7.48907343,9.55284847 8.19902753,9.25977805 8.76447771,8.69857938 C9.32992788,8.13738071 9.62521853,7.4327646 9.65034965,6.58473106 C9.62521853,5.73669751 9.32992788,5.03208141 8.76447771,4.47088274 C8.19902753,3.90968407 7.48907343,3.61661365 6.63461538,3.59167149 Z" id="形状结合"></path>
                </g>
            </g>
        </g>
    </g>
</svg>