<svg width="32" height="32" viewBox="0 0 32 32" xmlns="http://www.w3.org/2000/svg">
    <g fill-rule="nonzero" fill="none">
        <path d="M18.75 7.349a2.793 2.793 0 1 1-5.587 0 2.793 2.793 0 0 1 5.587 0z" stroke="#808BDF"/>
        <path d="M26.218 22.517c.318 1.582-.405 2.94-1.633 2.94H7.33c-1.228 0-1.95-1.358-1.633-2.94l2.156-10.712c.188-.935 1.048-1.663 1.927-1.663h12.356c.88 0 1.739.728 1.927 1.663l2.156 10.712z" stroke="#808BDF"/>
        <path d="M12.256 21.07h-.76v-5.246h.76v5.246zm.029-2.605 1.978-2.64h.915l-2.036 2.604 1.985 2.64h-.954l-1.888-2.604zm5.103-.043h3.255c-.036.819-.302 1.482-.798 1.99-.496.508-1.125.762-1.886.762-.395 0-.76-.076-1.093-.227a2.679 2.679 0 0 1-.897-.674 2.555 2.555 0 0 1-.51-.844 2.927 2.927 0 0 1-.173-1.014c0-.368.07-.716.21-1.045.14-.33.344-.626.614-.89.255-.255.54-.445.856-.571a2.81 2.81 0 0 1 1.051-.19c.533 0 1 .125 1.4.374.401.248.704.602.91 1.06h-.938a1.691 1.691 0 0 0-.622-.504 1.881 1.881 0 0 0-.807-.17 1.822 1.822 0 0 0-1.306.549c-.181.185-.322.4-.423.644a1.944 1.944 0 0 0-.152.75c0 .274.045.532.137.776.092.244.223.455.394.632.181.188.39.333.626.436.236.104.477.155.723.155.4 0 .754-.106 1.06-.319.306-.212.558-.526.756-.942h-2.387v-.738z" fill="#808BDF"/>
    </g>
</svg>
