<svg width="30" height="30" viewBox="0 0 30 30" xmlns="http://www.w3.org/2000/svg" xmlns:xlink="http://www.w3.org/1999/xlink">
    <defs>
        <path id="a" d="M0 .54h21.086v21.022H0z"/>
    </defs>
    <g fill="none" fill-rule="evenodd">
        <g transform="translate(4.688 4.688)">
            <mask id="b" fill="#fff">
                <use xlink:href="#a"/>
            </mask>
            <path d="M10.543 2.176c-4.91 0-8.904 3.982-8.904 8.874 0 4.893 3.994 8.875 8.904 8.875s8.904-3.982 8.904-8.875c0-4.892-3.994-8.874-8.904-8.874m0 19.386C4.73 21.562 0 16.846 0 11.05 0 5.255 4.73.539 10.543.539c5.813 0 10.543 4.716 10.543 10.51 0 5.797-4.73 10.513-10.543 10.513" fill="#C5DC18" mask="url(#b)"/>
        </g>
        <path d="M15.469 20.625c-3.04 0-5.563-2.17-5.967-4.98H8.437v-1.582h2.66v.79c0 2.31 1.962 4.19 4.372 4.19s4.37-1.88 4.37-4.19v-.79H22.5v1.581h-1.065c-.403 2.811-2.925 4.981-5.966 4.981" fill="#C5DC18"/>
    </g>
</svg>
