<?xml version="1.0" encoding="UTF-8"?>
<svg width="30px" height="30px" viewBox="0 0 30 30" version="1.1" xmlns="http://www.w3.org/2000/svg" xmlns:xlink="http://www.w3.org/1999/xlink">
    <title>CE52465E-4B8F-442A-AEC2-70DA13714F4D</title>
    <g id="Dashboard" stroke="none" stroke-width="1" fill="none" fill-rule="evenodd">
        <g id="Stridy-Dashboard" transform="translate(-70.000000, -642.000000)">
            <g id="icon/timer备份-4" transform="translate(50.000000, 627.000000)">
                <g transform="translate(20.000000, 15.000000)">
                    <path d="M24.0062235,14.8535156 C24.0062235,14.5898438 23.8594614,14.3512835 23.6309318,14.2487444 L19.4628883,12.3842076 L23.6309318,10.5175781 C23.8573648,10.4150391 24.0062235,10.1785714 24.0062235,9.91280692 C24.0062235,9.64913504 23.8594614,9.41057478 23.6309318,9.30803571 L15.5170845,5.67522321 C15.3661292,5.60825893 15.1984011,5.60825893 15.0495424,5.67522321 L6.93779165,9.30803571 C6.7092621,9.41057478 6.5625,9.64913504 6.5625,9.91280692 C6.5625,10.1764788 6.7092621,10.4150391 6.93779165,10.5175781 L11.1058352,12.3842076 L6.93779165,14.2508371 C6.7092621,14.3512835 6.5625,14.5898438 6.5625,14.8535156 C6.5625,15.1171875 6.7092621,15.3557478 6.93779165,15.4582868 L11.4308084,17.4714007 L6.93779165,19.4845145 C6.7092621,19.5849609 6.5625,19.8235212 6.5625,20.0871931 C6.5625,20.350865 6.7092621,20.5894252 6.93779165,20.6919643 L15.051639,24.3247768 C15.1271166,24.3582589 15.2067875,24.375 15.2864583,24.375 C15.3661292,24.375 15.4458,24.3582589 15.5212777,24.3247768 L23.635125,20.6919643 C23.861558,20.5894252 24.0104167,20.3529576 24.0104167,20.0871931 C24.0104167,19.8235212 23.8636546,19.5849609 23.635125,19.4824219 L19.1421083,17.469308 L23.635125,15.4561942 C23.8594614,15.3557478 24.0062235,15.1192801 24.0062235,14.8535156 Z M8.75344844,9.91280692 L14.8168196,7.19656808 C15.1166336,7.06263951 15.4541864,7.06263951 15.7540004,7.19656808 L21.8173716,9.91280692 L17.8820508,11.6748047 L16.2991168,12.3842076 L15.2843617,12.8383092 L14.2696067,12.3842076 L12.6866726,11.6748047 L8.75344844,9.91280692 Z M21.815275,20.0871931 L15.7519038,22.8034319 C15.4520898,22.9373605 15.114537,22.9373605 14.814723,22.8034319 L8.75344844,20.0871931 L13.0137424,18.1787109 L15.051639,19.0910993 C15.1271166,19.1245815 15.2067875,19.1413225 15.2864583,19.1413225 C15.3661292,19.1413225 15.4458,19.1245815 15.5212777,19.0910993 L17.5591742,18.1787109 L21.815275,20.0871931 L21.815275,20.0871931 Z M17.5570776,16.7619978 L15.9741436,17.4714007 L15.2843617,17.7790179 L14.5945799,17.469308 L13.0116458,16.7599051 L8.75344844,14.8535156 L12.6887692,13.0915179 L15.051639,14.1503906 C15.1271166,14.1838728 15.2067875,14.2006138 15.2864583,14.2006138 C15.3661292,14.2006138 15.4458,14.1838728 15.5212777,14.1503906 L17.8841474,13.0915179 L21.815275,14.8535156 L17.5570776,16.7619978 Z" id="形状" fill="#da6755" fill-rule="nonzero"></path>
                </g>
            </g>
        </g>
    </g>
</svg>