<svg width="30" height="30" viewBox="0 0 30 30" xmlns="http://www.w3.org/2000/svg">
    <g  fill="none" fill-rule="evenodd">
        <path d="M15.469 24.643c2.324-.05 4.26-.833 5.806-2.348 1.547-1.515 2.346-3.411 2.397-5.688-.051-2.277-.85-4.173-2.397-5.688-1.547-1.515-3.482-2.297-5.806-2.348-2.324.05-4.26.833-5.807 2.348-1.546 1.515-2.345 3.411-2.396 5.688.05 2.277.85 4.173 2.396 5.688 1.547 1.515 3.483 2.298 5.807 2.348zm0 1.607c-2.786-.067-5.106-1.009-6.96-2.825-1.854-1.816-2.816-4.09-2.884-6.818.068-2.729 1.03-5.001 2.884-6.818 1.854-1.816 4.174-2.758 6.96-2.825 2.785.067 5.105 1.009 6.96 2.825 1.854 1.817 2.815 4.09 2.884 6.818-.069 2.729-1.03 5.002-2.884 6.818-1.855 1.816-4.175 2.758-6.96 2.825zm0-16.071c.239 0 .436.075.59.226.153.15.23.343.23.577l-.019 4.234c.127.068.244.155.352.261.308.301.462.678.462 1.13 0 .452-.154.829-.462 1.13-.307.302-.692.452-1.153.452-.462 0-.846-.15-1.154-.452a1.607 1.607 0 0 1-.487-1.13 1.607 1.607 0 0 1 .8-1.37l.02-4.255c0-.234.077-.427.231-.577a.807.807 0 0 1 .59-.226zM18.75 3.75c.24 0 .436.075.59.226.153.15.23.343.23.578a.774.774 0 0 1-.23.577.807.807 0 0 1-.59.226h-2.46v3.214h-1.642V5.357h-2.46a.807.807 0 0 1-.59-.226.774.774 0 0 1-.23-.577c0-.235.076-.427.23-.578a.807.807 0 0 1 .59-.226h6.562z" fill="#43c2a6" fill-rule="nonzero"/>
    </g>
</svg>
