<svg width="62" height="68" viewBox="0 0 62 68" xmlns="http://www.w3.org/2000/svg">
    <defs>
        <linearGradient x1="7.417%" y1="0%" x2="92.465%" y2="100%" id="a">
            <stop stop-color="#DFF15A" offset="0%"/>
            <stop stop-color="#C6EE8E" offset="100%"/>
        </linearGradient>
        <linearGradient x1="4.626%" y1="36.604%" x2="95.249%" y2="63.396%" id="b">
            <stop stop-color="#DFF15A" offset="0%"/>
            <stop stop-color="#C6EE8E" offset="100%"/>
        </linearGradient>
    </defs>
    <g fill="none" fill-rule="evenodd">
        <path d="M46 16c0 8.837-6.94 16-15.5 16C21.94 32 15 24.837 15 16c0-8.841 6.94-16 15.5-16C39.06 0 46 7.159 46 16" fill="url(#a)"/>
        <path d="M58.378 31.999c2.163 0 3.77-2.02 3.39-4.197C58.988 11.972 46.246 0 30.913 0 15.574-.001 2.833 11.97.057 27.802-.323 29.978 1.279 32 3.442 32h54.936z" transform="translate(0 36)" fill="url(#b)"/>
    </g>
</svg>
