<svg width="50" height="39" viewBox="0 0 50 39" xmlns="http://www.w3.org/2000/svg" xmlns:xlink="http://www.w3.org/1999/xlink">
    <defs>
        <path id="a" d="M0 .145h5.983v9.547H0z"/>
        <path id="c" d="M0 38.88h49.815V0H0z"/>
    </defs>
    <g fill="none" fill-rule="evenodd">
        <path d="m21.077 7.359-3.83-3.836c4.69-4.697 12.322-4.697 17.012 0l-3.83 3.836a6.613 6.613 0 0 0-9.352 0M24.907 11.194l-3.83-3.835a6.564 6.564 0 0 1-4.675 1.94 6.564 6.564 0 0 1-4.676-1.94l-3.83 3.835a11.941 11.941 0 0 0 8.506 3.53 11.94 11.94 0 0 0 8.505-3.53" fill="#00291C"/>
        <path d="M33.413 7.666a11.941 11.941 0 0 0-8.506 3.528l3.83 3.836a6.613 6.613 0 0 1 9.352 0l3.83-3.836a11.94 11.94 0 0 0-8.506-3.528" fill="#00291C"/>
        <path d="m19.385 15.03-3.83 3.836a11.983 11.983 0 0 0 8.506 3.523c3.081 0 6.161-1.175 8.506-3.523l-3.83-3.836a6.613 6.613 0 0 1-9.352 0" fill="#00291C"/>
        <g transform="translate(0 29.188)">
            <mask id="b" fill="#fff">
                <use xlink:href="#a"/>
            </mask>
            <path d="M1.452 6.796c.1 1.38 1.068 1.653 1.552 1.653.819 0 1.527-.646 1.527-1.467 0-1.02-.87-1.255-2.049-1.69-.72-.237-2.32-.771-2.32-2.5C.148 1.078 1.613.146 3.052.146c1.18 0 2.657.646 2.769 2.536h-1.44c-.1-.497-.323-1.293-1.378-1.293-.745 0-1.39.51-1.39 1.293 0 .895.682 1.119 2.16 1.666 1.141.485 2.209 1.069 2.209 2.56 0 1.493-1.005 2.785-2.967 2.785C1.192 9.692.025 8.573 0 6.796h1.452z" fill="#00291C" mask="url(#b)"/>
        </g>
        <path fill="#00291C" d="M10.8 30.8H8.69v-1.294h5.684V30.8h-2.11v7.907H10.8zM17.515 29.506h2.595c1.44 0 2.184.2 2.668.535.757.497 1.217 1.454 1.217 2.486 0 .647-.187 1.268-.522 1.753-.471.66-1.067.883-1.775 1.007l2.16 3.419h-1.551l-2.52-4.152h.323c.633 0 1.402-.025 1.837-.398.422-.373.633-.908.633-1.504 0-.622-.298-1.231-.782-1.554-.398-.249-.907-.299-1.564-.299H18.98v7.907h-1.465v-9.2z"/>
        <mask id="d" fill="#fff">
            <use xlink:href="#c"/>
        </mask>
        <path fill="#00291C" mask="url(#d)" d="M27.335 38.706h1.464v-9.2h-1.464zM32.784 29.506h2.842c1.229 0 2.756.187 3.774 1.492.695.833 1.005 1.89 1.005 3.096 0 2.685-1.452 4.612-4.68 4.612h-2.941v-9.2zm1.464 7.907H35.8c2.16 0 3.153-1.38 3.153-3.294 0-1.736-.86-3.32-3.14-3.32h-1.565v6.614zM45.47 35.436l-2.88-5.93h1.59l2.023 4.55 2.023-4.55h1.588l-2.88 5.93v3.27H45.47z"/>
    </g>
</svg>
